STARTFONT 2.1
COMMENT
COMMENT Converted from OpenType font "Font 90 Icons.ttf" by "otf2bdf 3.0".
COMMENT
FONT -FreeType-Font 90 Icons-Medium-R-Normal--37-270-100-100-P-143-ISO10646-1
SIZE 27 100 100
FONTBOUNDINGBOX 41 40 0 -8
STARTPROPERTIES 19
FOUNDRY "FreeType"
FAMILY_NAME "Font 90 Icons"
WEIGHT_NAME "Medium"
SLANT "R"
SETWIDTH_NAME "Normal"
ADD_STYLE_NAME ""
PIXEL_SIZE 37
POINT_SIZE 270
RESOLUTION_X 100
RESOLUTION_Y 100
SPACING "P"
AVERAGE_WIDTH 143
CHARSET_REGISTRY "ISO10646"
CHARSET_ENCODING "1"
FONT_ASCENT 31
FONT_DESCENT 7
COPYRIGHT "Typeface © (el-harrak.blogspot.com). <darrati10@gmail.com>. All Rights Reserved"
_OTF_FONTFILE "Font 90 Icons.ttf"
_OTF_PSNAME "Font 90 Icons"
ENDPROPERTIES
CHARS 242
STARTCHAR 0000
ENCODING 0
SWIDTH 0 0
DWIDTH 0 0
BBX 0 0 0 0
BITMAP
ENDCHAR
STARTCHAR 001D
ENCODING 29
SWIDTH 0 0
DWIDTH 0 0
BBX 0 0 0 0
BITMAP
ENDCHAR
STARTCHAR 0020
ENCODING 32
SWIDTH 240 0
DWIDTH 9 0
BBX 0 0 0 0
BITMAP
ENDCHAR
STARTCHAR 0021
ENCODING 33
SWIDTH 986 0
DWIDTH 37 0
BBX 37 36 0 -6
BITMAP
000FFF0000
003FFDE000
007FFF3800
01FFFF8C00
03FFFFC600
07FFFFC300
0FFFFFE180
1FFF8FE0C0
1FFF07E040
3FFF07E020
3FFF07E020
7FFF8FE030
7FFFFFE010
7FFFFFC010
7FFFFF8018
FFFFFF0018
FFFFFE0008
FFFFF80008
FFFE000008
FFFC000008
FFF0000018
7FF0000010
7FE0000010
7FE0000010
7FC0700030
3FC0F80020
3FC0F80060
1FC0F80040
0FC0700080
0FE0000180
07E0000300
03F0000600
00F8001C00
007C003000
001F01C000
0003FF0000
ENDCHAR
STARTCHAR 0022
ENCODING 34
SWIDTH 986 0
DWIDTH 37 0
BBX 37 30 0 -3
BITMAP
0003FE0000
0007FF0000
0006018000
0004018000
0004018000
3FFFFFFFE0
7FFFFFFFF0
7FFFFFFFF8
FFFFFFFFF8
FFFFFFFFF8
FFFFFFFFF8
FFFFFFFFF8
FFFFFFFFF8
FFFFFFFFF8
FFFFFFFFF8
FFFFFFFFF8
FFFFFFFFF8
FFFFFFFFF8
FFFFFFFFF8
FFFFFFFFF8
FFFFFFFFF8
FFFFFFFFF8
FFFFFFFFF8
FFFFFFFFF8
FFFFFFFFF8
FFFFFFFFF8
FFFFFFFFF8
7FFFFFFFF8
7FFFFFFFF0
007FFF2000
ENDCHAR
STARTCHAR 0023
ENCODING 35
SWIDTH 986 0
DWIDTH 37 0
BBX 35 38 1 -8
BITMAP
007FE00000
71FFF80000
F3FFFF0000
7BFFFFFF00
7BFFFFFF00
7BFFFFFF00
7BFFFFFF80
7BFFFFFF80
39FFFFFF80
3DFFFFFF80
3DFFFFFF80
3DFFFFFF80
3DFFFFFFC0
3CFFFFFFC0
1EFFFFFFC0
1EFFFFFFC0
1EFFFFFFC0
1EFF0FFFC0
1E7800FFC0
1E60003FE0
0F40000FE0
0F000001C0
0F00000000
0F00000000
0F00000000
0780000000
0780000000
0780000000
0780000000
0780000000
0780000000
03C0000000
03C0000000
03C0000000
03C0000000
03C0000000
03C0000000
01E0000000
ENDCHAR
STARTCHAR 0024
ENCODING 36
SWIDTH 986 0
DWIDTH 37 0
BBX 37 36 0 -6
BITMAP
0F80000000
1FC0000000
3FE0000000
7FF0000000
7FF8000000
FFFC000000
FFFE000000
FFFF000000
7FFFC00000
3FFFA00000
1FFF700000
0FFEF80000
07FDFE0000
03FBFC0000
01F7F80000
00EFF00000
005FE00000
007FD00000
003FB00000
001F180000
000E0C0000
000C060000
0004030000
0000018000
000000C000
0000006000
0000003000
0000001800
0000000C00
0000000200
0000000100
0000000080
0000000040
0000000020
0000000010
0000000008
ENDCHAR
STARTCHAR 0025
ENCODING 37
SWIDTH 986 0
DWIDTH 37 0
BBX 35 39 1 -7
BITMAP
0000400000
0001F00000
0001F80000
0003F80000
0003F80000
001FFF0000
007FFFC000
00FFFFE000
01FFFFF800
7FFDF7FFC0
7FF1E1FFE0
FFC0E07FE0
FFC0E03FE0
7FC0E07FC0
3FE0C0FF80
3FF0C1FF80
3FFCE7FF80
3E3FFF8F80
3E07FC0780
3E03F80780
3E03F80780
3E07FC0780
3E3FFFCF80
3FFCE3FF80
3FF0E1FF80
3FE0E0FFC0
7FC0E07FC0
FF80E03FE0
FFC0F07FE0
7FF1F1FFE0
7FFDF7FFC0
01FFFFF000
00FFFFE000
007FFFC000
001FFF0000
0003F80000
0003F80000
0001F00000
0001F00000
ENDCHAR
STARTCHAR 0026
ENCODING 38
SWIDTH 986 0
DWIDTH 37 0
BBX 37 36 0 -6
BITMAP
0007FF0000
003FFFE000
007C01F000
01E0003C00
03C0701E00
0707FF0700
0E1FFFC380
1C3FFFE1C0
187FFFF0C0
38FFFFF8E0
31FFFFFC60
71EFFFFC70
63F7FF7E30
63FBFE7E30
67FDFCFF38
E7FEF9FF38
E7FF73FF18
C7FF87FF18
C7FF8FFF18
E7FFCFFF18
E7FFFFFF38
63FFFFFF30
63FFFFFE30
63FFFFFE30
71FFFFFC70
31FFFFFC60
38FFFFF8E0
1C7FFFF1C0
0C3FFFE180
0E0FFF8380
0783FE0F00
03C0001E00
00F0007800
007E03F000
001FFFC000
0003FE0000
ENDCHAR
STARTCHAR 0027
ENCODING 39
SWIDTH 986 0
DWIDTH 37 0
BBX 37 36 0 -7
BITMAP
007FF00000
01FFFC0000
03FFFE0000
07FFFF0000
0FFFFF8000
1FF07FC000
3FC01FE000
3F0707E000
7F0703F000
7E0703F000
7C0701F000
7C0701F800
FCFFF9F800
FCFFF9F800
FCFFF9F800
FC0701F800
7C0701F800
7E0701F000
7E0703F000
3F0707F000
3F800FE000
1FC01FF000
1FFDFFF800
0FFFFFFC00
07FFFFFE00
03FFFFFF00
00FFFFFF80
001FC7FFC0
000003FFE0
000001FFF0
000000FFF0
0000007FF8
0000003FF8
0000001FF0
0000000FF0
00000003E0
ENDCHAR
STARTCHAR 0028
ENCODING 40
SWIDTH 986 0
DWIDTH 37 0
BBX 37 37 0 -7
BITMAP
000F800000
007FF00000
01FFFC0000
03FFFF0000
0FFFFF8000
0FFFFFC000
1FE03FC000
3F800FE000
3F0007F000
7E0003F000
7E0003F000
7C0001F800
FC0001F800
FCFFF9F800
FCFFF9F800
FCFFF9F800
FC0001F800
7C0001F800
7E0003F000
7E0003F000
3F0007F000
3F800FE000
1FE03FF000
1FFFFFF800
0FFFFFFC00
07FFFFFE00
01FFFFFF00
00FFFFFF80
001FC3FFC0
000001FFE0
000000FFF0
0000007FF8
0000003FF8
0000001FF8
0000000FF8
00000007F0
00000003E0
ENDCHAR
STARTCHAR 0029
ENCODING 41
SWIDTH 986 0
DWIDTH 37 0
BBX 37 28 0 -2
BITMAP
3FFFFFFFF0
7FFFFFFFF8
F000000078
F8000000F8
FC000001F8
FE000003D8
EF00000798
E780000F18
E3C0001E18
E1E0003C18
E0F0007818
E03800F018
E01C01E018
E00E03C018
E00F07C018
E01F8FE018
E03BFEF018
E071FC7818
E0E0703C18
E1C0001E18
E380000F18
E700000798
EE000003D8
FC000001D8
F8000000F8
FFFFFFFFF8
7FFFFFFFF8
3FFFFFFFF0
ENDCHAR
STARTCHAR 002A
ENCODING 42
SWIDTH 986 0
DWIDTH 37 0
BBX 32 39 3 -8
BITMAP
0007C000
0007C000
0007C000
0007C000
0007C000
0007C000
0007C000
0007C000
0007C000
0307C380
07C7CF80
07F7FF80
03FFFF00
01FFFE00
00FFFC00
7F7FFBFC
7FBFF7FC
BFDFEFFA
DFEFDFF7
EFF7BFEF
F7FB7FDF
FBFFFFBF
FDFFFF7F
FEFFFEFF
FF7FFDFF
FFBFFBFF
FFDFF7FF
FFCFE7FF
FFB7DBFF
FF793DFF
FEFEFEFF
FDFFFF7F
FBFFFFBF
F7FFFFDF
EFFFFFEF
DFFFFFF7
BFFFFFFA
7FFFFFFC
3FFFFFF8
ENDCHAR
STARTCHAR 002B
ENCODING 43
SWIDTH 986 0
DWIDTH 37 0
BBX 37 36 0 -6
BITMAP
FFFFFFFFF8
FFFFFFFFF8
FFFFFFFFF8
FFFFFFFFF8
F3FFFFFE78
F80FFF8078
F81FFFC078
F81FFFE078
F80FFF8078
F807FF0078
F903FF04F8
FB07FF86F8
FF8FFFCFF8
FFDFFFFFF8
FFFFFFFFF8
FFFFFFFFF8
FFFFFFFFF8
FFFFFFFFF8
FFFFFFFFF8
FFFFFFFFF8
FFFFFFFFF8
FFFFFFFFF8
FFDFFFDFF8
FF8FFF8FF8
FB07FF06F8
F803FF00F8
F807FF8078
F80FFFC078
F81FFFE078
F81FFFC078
F00FFF8078
FFFFFFFFF8
FFFFFFFFF8
FFFFFFFFF8
FFFFFFFFF8
FFFFFFFFF8
ENDCHAR
STARTCHAR 002C
ENCODING 44
SWIDTH 986 0
DWIDTH 37 0
BBX 37 36 0 -6
BITMAP
0000003E00
000007FF00
00000FFF80
00001FFFC0
00003FFFE0
00007FFBF0
0000FFF1F8
0001FFE0F8
0003FFF1F0
0007FFFBF0
000FFFFFF0
001FFFFFF0
003FFFFFF0
007FFFFFF0
00FFFFFFE0
01EFFFFFE0
03C7FFFFC0
07E3FFFF80
0F71FFFF00
1F38FFFE00
3F9C7FFC00
FFCE3FF800
7FE71FF000
3FF38FE000
1FF9C7C000
0FFCE78000
07FE7F0000
03FF3E0000
01FFBC0000
00FFF80000
007FF00000
003FE00000
001FC00000
000F800000
0007000000
0002000000
ENDCHAR
STARTCHAR 002D
ENCODING 45
SWIDTH 986 0
DWIDTH 37 0
BBX 37 36 0 -6
BITMAP
0007FF0000
003FFFE000
007E01F000
01F0007C00
03C0001E00
0780000700
0F00000380
1F8000C1C0
1CC001C1C0
386003C0E0
303007C060
70180FC070
70041FC030
600FFFC030
600FFFC038
E00FFFC038
E00FFFC038
E00FFFC038
E00FFFC038
E00FFFC038
E00FFFC038
600FFFC030
60003FC030
70001FC070
70000FC070
380007D0E0
380003D0E0
1C0001D9C0
0E00008F80
0F00000780
0780000F00
03C0001E00
00F0007C00
007E03F000
001FFFC000
0003FE0000
ENDCHAR
STARTCHAR 002E
ENCODING 46
SWIDTH 986 0
DWIDTH 37 0
BBX 31 39 3 -7
BITMAP
1FFFFFF8
3FFFFFFC
3000000C
3000000C
3000000C
3000000C
3000000C
3000000C
3000000C
3000000C
3000000C
3000000C
3000000C
3000000C
3000000C
3000000C
3000000C
3000000C
3000000C
3FFFFFFC
1FFFFFF8
00000000
1FFFFFFC
3FFFFFFC
3FFFFFFC
3FFFF03C
3FFFFFFC
3FFFFFFC
3FFFFFFC
3FFFFFFC
00018000
00018000
00018000
00018000
00018000
003FFC00
003FFC00
FFFFFFFE
003FFC00
ENDCHAR
STARTCHAR 002F
ENCODING 47
SWIDTH 986 0
DWIDTH 37 0
BBX 37 38 0 -7
BITMAP
0000F80000
0C03FE0180
0E07FF0380
0607FF0300
070FFF8700
470FFF8710
E30FFF8638
638FFF8E30
638FFF8E30
738FFF8E70
738FFF8E70
71CFFF8E70
31CFFF9C70
31CFFF9C60
39CFFF9C60
39CFFF9C60
39CFFF9C60
31CFFF9C60
31CFFF9C60
71CFFF8E70
738FFF8E70
738FFF8E70
638FFF8E30
638FFF8E30
E30FFF8638
C707FF8718
0707FF0700
0603FE0300
0E01FC0380
0C01FC0180
0801FC0080
0001FC0000
0001FC0000
0001FC0000
0001FC0000
0001FC0000
0001FC0000
0000F80000
ENDCHAR
STARTCHAR 0030
ENCODING 48
SWIDTH 986 0
DWIDTH 37 0
BBX 37 36 0 -6
BITMAP
0007FF0000
003FFFE000
007FFFF000
01FFFFFC00
03FFFFFE00
07FFFFFF00
0FCFFF9F80
0F87FF0FC0
1F07FF07C0
3E03FE03E0
3E03FE03E0
7C01FC01F0
7C01FC01F0
7800F800F0
7801FC00F8
F8038E00F8
F8030600F8
F803060078
FFFF07FFF8
FFFF07FFF8
FFFF9FFFF8
7FFFFFFFF0
7FFF77FFF0
7FFE03FFF0
7FFE03FFF0
3FFC01FFE0
3FFC01FFE0
1FF800FFC0
0FF0007FC0
0FF0007F80
07F0007F00
03FE03FE00
01FFFFFC00
007FFFF000
001FFFE000
0007FF0000
ENDCHAR
STARTCHAR 0031
ENCODING 49
SWIDTH 986 0
DWIDTH 37 0
BBX 35 39 1 -7
BITMAP
0001F00000
0003F80000
0003FC0000
0003FC0000
0003FC0000
0023FC8000
00E3FCE000
01E3FCF000
07E3FCFC00
0FE3FCFE00
0FE3FCFE00
1FC3FC7F00
3F83FC3F80
3F03FC1F80
7E03FC0FC0
7E03FC0FC0
FC03FC07E0
FC03FC07E0
F803FC03E0
F803FC03E0
F803FC03E0
F803F803E0
F8000003E0
F8000003E0
F8000003E0
FC000007E0
FC000007E0
7C000007C0
7E00000FC0
3F00001F80
3F80003F80
1FC0007F00
1FE000FF00
0FFC07FE00
07FFFFFC00
03FFFFF800
00FFFFE000
007FFFC000
000FFE0000
ENDCHAR
STARTCHAR 0032
ENCODING 50
SWIDTH 986 0
DWIDTH 37 0
BBX 35 39 1 -7
BITMAP
0000400000
0001F00000
0003F00000
0003F80000
0003F80000
0003F80000
0001F00000
0001F00000
0001F00100
7C01F007C0
FE01E00FE0
FF80E03FE0
FF80E07FE0
7FC0E07FC0
3FE0C0FF80
0FF0C1FE00
03F8E7F800
003FFF8000
0007FC0000
0003F80000
0003F80000
0007FC0000
003FFFC000
03FCE7F800
0FF0E1FF00
3FE0E0FFC0
7FC0E07FC0
FF80E03FE0
FF00E01FE0
7E01F00FE0
7C01F007C0
0001F00000
0001F00000
0003F80000
0003F80000
0003F80000
0003F80000
0001F00000
0001F00000
ENDCHAR
STARTCHAR 0033
ENCODING 51
SWIDTH 986 0
DWIDTH 37 0
BBX 37 34 0 -5
BITMAP
0000200000
0000200000
0000700000
0000700000
0000F80000
0000F80000
0001FC0000
0001FC0000
0003FE0000
0003FE0000
0007FF0000
007FFFF000
BFFFFFFFE8
7FFFFFFFF0
3FFFFFFFE0
1FFFFFFFC0
0FFFFFFF80
07FFFFFF00
03FFFFFE00
01FFFFFC00
00FFFFF800
007FFFF000
007FFFF000
007FFFF000
007FFFF000
007FFFF000
007FFFF000
00FFFFF800
00FFDFF800
00FF07F800
00FC01F800
00F8007800
00E0003C00
0180000C00
ENDCHAR
STARTCHAR 0034
ENCODING 52
SWIDTH 986 0
DWIDTH 37 0
BBX 37 26 0 -1
BITMAP
3FFFFFFFE0
1FFFFFFFE0
CFFFFFFFD8
E7FFFFFFB8
F3FFFFFF78
F9FFFFFEF8
FCFFFFFDF8
FE7FFFFBF8
FF3FFFF7F8
FF9FFFEFF8
FFCFFFDFF8
FFE7FFBFF8
FFF3FF7FF8
FFF1FC7FF8
FFECF9BFF8
FFDE73DFF8
FFBF07EFF8
FF7FFFF7F8
FEFFFFFBF8
FDFFFFFDF8
FBFFFFFEF8
F7FFFFFF78
EFFFFFFFB8
DFFFFFFFD8
3FFFFFFFE0
3FFFFFFFE0
ENDCHAR
STARTCHAR 0035
ENCODING 53
SWIDTH 986 0
DWIDTH 37 0
BBX 37 28 0 -3
BITMAP
000070F800
0001DCF800
00038EF800
000E63F800
001CF9F800
0031FC7800
00E7FF3800
018FFF8C00
073FFFE700
0C7FFFF180
39FFFFF8E0
63FFFFFE70
C3FFFFFE18
03FFFFFE00
03FFFFFE00
03FFFFFE00
03FE03FE00
03FE03FE00
03FE03FE00
03FE03FE00
03FE03FE00
03FE03FE00
03FE03FE00
03FE03FE00
03FE03FE00
03FE03FE00
03FE03FE00
03FE03FE00
ENDCHAR
STARTCHAR 0036
ENCODING 54
SWIDTH 986 0
DWIDTH 37 0
BBX 37 38 0 -7
BITMAP
03C0003C00
07E0007E00
07E0007E00
07E0007E00
07E0007E00
03C0003C00
0000000000
3FF801FF00
7FFE03FF80
7FFE03FFC0
FFFE07FFC0
FFFE07FEE0
EFF607FEE0
EFF60EFFE0
EFF60EFF60
EFF60FFF70
EFF60DFFF0
EFF61DFFB0
EFF61FFFB8
EFF61FFFB8
EFF60BFFD0
6FF603FFC0
0EF007FFC0
0EF007FFE0
0EF007FFE0
0EF00FFFE0
0EF000FE00
0EF000FE00
0EF000FE00
0EF000FE00
0EF000FE00
0EF000FE00
0EF000FE00
0EF000FE00
0EF000FE00
0EF000FE00
0EF000FE00
0E60006E00
ENDCHAR
STARTCHAR 0037
ENCODING 55
SWIDTH 986 0
DWIDTH 37 0
BBX 37 28 0 -2
BITMAP
003FC00000
00FFF80000
03F0FC0000
07E07F0000
0FE03F8000
1FC03F8000
3FC03FC000
3FE03FE000
7FE07FE000
7FF0FFF000
707FF0F000
603FE07000
E03FC03000
E01FC03000
E01FC03000
E03FC03000
703FE07000
78F9F9F000
7FE07FF000
7FE03FE000
3FC03FE000
1FC03FC000
1FC03FC000
0FE03FC038
07F07EE1F8
03FFFCFFE0
00FFF07F80
001FC00000
ENDCHAR
STARTCHAR 0038
ENCODING 56
SWIDTH 986 0
DWIDTH 37 0
BBX 29 39 4 -7
BITMAP
1FFFFFE0
7FFFFFF8
FFFFFFF8
FFFFFFF8
E0000038
E0000038
E0000038
E0000038
E0000038
E0000038
E0000038
FFFFFFF8
FFFFFFF8
FFFFFFF8
F0F07838
F0F07838
F0F07838
F0F07838
F0F07838
FFFFFFF8
FFFFFFF8
FFFFFFF8
F0F07838
F0F07838
F0F07838
F0F07838
F0F07838
FFFFFFF8
FFFFFFF8
FFFFFFF8
FFFFFFF8
F0F07838
F0F07838
F0F07838
F0F07838
F0F07878
FFFFFFF8
FFFFFFF8
7FFFFFF0
ENDCHAR
STARTCHAR 0039
ENCODING 57
SWIDTH 986 0
DWIDTH 37 0
BBX 37 35 0 -5
BITMAP
4000000000
F000000000
7800000000
3C00000000
1C00000000
0E1FFFFFF8
0F1FFFFFF0
071FFFFFF0
071FFFFFE0
039FFFFFE0
039FFFFFC0
018FFFFFC0
01CFFFFF80
01CFFFFF80
01CFFFFF80
00CFFFFF00
00EFFFFF00
00E7FFFE00
00E0000000
00E0000000
00E0000000
0060000000
0060000000
007FFFFFC0
007FFFFFC0
007FFFFF80
0000000000
0000000000
0078000F00
00FC001F80
00FE003FC0
00FE003FC0
00FE003FC0
00FE001F80
007C000F80
ENDCHAR
STARTCHAR 003A
ENCODING 58
SWIDTH 986 0
DWIDTH 37 0
BBX 37 36 0 -5
BITMAP
000003FC00
00000FFF00
00001FFF80
00003FFFC0
00007FF1E0
00007FE0F0
0000FFE0F0
0000FFC0F0
0000FFE0F8
0000FFF1F8
0000FFFFF8
0000FFFFF8
0000FFFFF0
0000FFFFF0
0000FFFFF0
00027FFFE0
00073FFFE0
000F3FFFC0
001F9FFF80
003FC7FE00
007FE1F800
00FFF80000
01FFFC0000
03FFC00000
07FFC00000
0FFE000000
1FFE000000
3FFE000000
7FE0000000
7FE0000000
FFE0000000
FFE0000000
FF00000000
7F00000000
3F00000000
1F00000000
ENDCHAR
STARTCHAR 003B
ENCODING 59
SWIDTH 986 0
DWIDTH 37 0
BBX 37 36 0 -6
BITMAP
0000700000
0000700000
0000700000
0000700000
0000700000
0000700000
0000700000
0000700000
0000700000
0000700000
0000700000
0000700000
0000700000
0000700000
0000700000
0000700000
0000700000
FFFFFFFFF8
FFFFFFFFF8
0000700000
0000700000
0000700000
0000700000
0000700000
0000700000
0000700000
0000700000
0000700000
0000700000
0000700000
0000700000
0000700000
0000700000
0000700000
0000700000
0000700000
ENDCHAR
STARTCHAR 003C
ENCODING 60
SWIDTH 986 0
DWIDTH 37 0
BBX 37 30 0 -3
BITMAP
0000300000
0000700000
0000780000
0000F80000
0001FC0000
0001FC0000
0003DE0000
00038F0000
00078F0000
000F078000
000F038000
001E03C000
001C01E000
003C01E000
007800F000
0078007000
00F0007800
00E0003C00
01E0003C00
03C0001E00
03C0000E00
0780000F00
0700000780
0F00000780
1E000003C0
1E000001C0
3C000001E0
38000000F0
78000000F0
F000000078
ENDCHAR
STARTCHAR 003D
ENCODING 61
SWIDTH 986 0
DWIDTH 37 0
BBX 37 36 0 -6
BITMAP
0007FF0000
001E03E000
0070007000
01C0001C00
0300000E00
0600000300
0C00000180
18FFFE00C0
181E1F00C0
301E078060
301E07C060
601E03C030
601E03C030
401E03C010
401E07C010
C01E078018
C01E0F0018
C01FFC0018
C01FF80018
C01E780018
C01E3C0018
401E1E0010
601E1E0030
601E0F0030
601E078030
301E038060
301E03C060
183E01E0C0
0CFFC0F980
0C00000180
0700000700
0380000E00
01C0001C00
007800F000
001FCFC000
0003FE0000
ENDCHAR
STARTCHAR 003E
ENCODING 62
SWIDTH 986 0
DWIDTH 37 0
BBX 37 36 0 -6
BITMAP
0007FF0000
001F07C000
0070007000
01C0001C00
0380000E00
0600000300
0C00FC3180
180787F0C0
180E00F0C0
303C007060
3038003060
6070003030
60F0001030
40E0000010
41E0000010
C1E0000018
C1E0000018
C1E0000018
C1E0000018
C1E0000018
C1E0000018
41E0000010
40F0000010
60F0000030
6078001830
3078003060
303E006060
180F8180C0
0C07FF0180
0C00000180
0700000700
0380000E00
01C0001C00
007800F000
001F8FC000
0003FE0000
ENDCHAR
STARTCHAR 003F
ENCODING 63
SWIDTH 986 0
DWIDTH 37 0
BBX 37 36 0 -6
BITMAP
0007FF0000
001FFFC000
007FFFF000
01FFFFFC00
03FC01FE00
07F0007F00
0FC0001F80
0F80000F80
1F000007C0
3E000003E0
3E000001E0
7C000001F0
78000000F0
78000000F0
78000000F0
F8000000F8
F000000078
F000000078
F000000078
F000000078
F8000000F8
78000000F0
78000000F0
78000000F0
7C000001F0
3C000001E0
3E000003E0
1F000007C0
0F80000F80
0FC0001F80
07F0007F00
03FC01FE00
01FFFFFC00
007FFFF000
001FFFC000
0007FF0000
ENDCHAR
STARTCHAR 0040
ENCODING 64
SWIDTH 986 0
DWIDTH 37 0
BBX 37 36 0 -6
BITMAP
0000200000
0000200000
0000700000
0000700000
0000F80000
0000F80000
0001FC0000
0001FC0000
0003FE0000
0003FE0000
0007FF0000
0007FF0000
000FFF8000
000FFF8000
001FFFC000
001FFFC000
003FFFE000
003FFFE000
007FFFF000
007FFFF000
00FFFFF800
00FFFFF800
01FFFFFC00
01FFFFFC00
03FFFFFE00
03FFFFFE00
07FFFFFF00
07FFFFFF00
0FFFFFFF80
0FFFFFFF80
1FFFFFFFC0
1FFFFFFFC0
3FFFFFFFE0
3FFFFFFFE0
7FFFFFFFF0
FFFFFFFFF8
ENDCHAR
STARTCHAR 0041
ENCODING 65
SWIDTH 986 0
DWIDTH 37 0
BBX 37 35 0 -5
BITMAP
8004000000
C006000000
E007000000
F807C00000
FC07E00000
FE07F00000
FF87FC0000
FFC7FE0000
FFE7FF0000
FFFBFFC000
FFFCFFE000
FFFE7FF000
FFFFBFFC00
FFFFCFFE00
FFFFE7FF00
FFFFFBFFC0
FFFFFCFFE0
FFFFFF7FF8
FFFFFE7FF0
FFFFFDFFE0
FFFFF3FF80
FFFFE7FF00
FFFFDFFE00
FFFF3FF800
FFFE7FF000
FFFDFFE000
FFF3FF8000
FFE7FF0000
FFC7FE0000
FF07F80000
FE07F00000
FC07E00000
F007800000
E007000000
C006000000
ENDCHAR
STARTCHAR 0042
ENCODING 66
SWIDTH 986 0
DWIDTH 37 0
BBX 32 39 3 -7
BITMAP
800001FE
800001FE
E00001FE
F80001FE
FC0001FE
FF0001FE
FFC001FE
FFE001FE
FFF801FE
FFFC01FE
FFFF01FE
FFFFC1FE
FFFFE1FE
FFFFF9FE
FFFFFFFE
FFFFFFFE
FFFFFFFE
FFFFFFFE
FFFFFFFE
FFFFFFFF
FFFFFFFE
FFFFFFFE
FFFFFFFE
FFFFFFFE
FFFFFFFE
FFFFFDFE
FFFFF9FE
FFFFE1FE
FFFF81FE
FFFF01FE
FFFC01FE
FFF801FE
FFE001FE
FF8001FE
FF0001FE
FC0001FE
F00001FE
E00001FE
800001FE
ENDCHAR
STARTCHAR 0043
ENCODING 67
SWIDTH 986 0
DWIDTH 37 0
BBX 27 38 5 -7
BITMAP
FFE0FFE0
FFE0FFE0
FFE0FFE0
FFE0FFE0
FFE0FFE0
FFE0FFE0
FFE0FFE0
FFE0FFE0
FFE0FFE0
FFE0FFE0
FFE0FFE0
FFE0FFE0
FFE0FFE0
FFE0FFE0
FFE0FFE0
FFE0FFE0
FFE0FFE0
FFE0FFE0
FFE0FFE0
FFE0FFE0
FFE0FFE0
FFE0FFE0
FFE0FFE0
FFE0FFE0
FFE0FFE0
FFE0FFE0
FFE0FFE0
FFE0FFE0
FFE0FFE0
FFE0FFE0
FFE0FFE0
FFE0FFE0
FFE0FFE0
FFE0FFE0
FFE0FFE0
FFE0FFE0
FFE0FFE0
FFE0FFE0
ENDCHAR
STARTCHAR 0044
ENCODING 68
SWIDTH 986 0
DWIDTH 37 0
BBX 31 38 3 -7
BITMAP
80000000
E0000000
F0000000
FC000000
FF000000
FF800000
FFE00000
FFF80000
FFFC0000
FFFF0000
FFFFC000
FFFFE000
FFFFF800
FFFFFC00
FFFFFF00
FFFFFFC0
FFFFFFE0
FFFFFFF8
FFFFFFFE
FFFFFFFE
FFFFFFF8
FFFFFFE0
FFFFFFC0
FFFFFF00
FFFFFC00
FFFFF800
FFFFE000
FFFF8000
FFFF0000
FFFC0000
FFF80000
FFE00000
FF800000
FF000000
FC000000
F0000000
E0000000
80000000
ENDCHAR
STARTCHAR 0045
ENCODING 69
SWIDTH 986 0
DWIDTH 37 0
BBX 37 36 0 -6
BITMAP
0007FF0000
001FFFC000
007FFFF000
01FFFFFC00
03FFFFFE00
07FFFFFF00
0FFFFFFF80
0FFFFFFF80
1FFFFFFFC0
3FFFFFFFE0
3FFE03FFE0
7FFC01FFF0
7FF800FFF0
7FF0007FF0
7FE0003FF0
FFE0003FF8
FFE0003FF8
FFE0001FF8
FFE0001FF8
FFE0003FF8
7FE0003FF8
7FE0003FF0
7FF0007FF0
7FF800FFF0
3FFC01FFF0
3FFF07FFE0
3FFFFFFFE0
1FFFFFFFC0
0FFFFFFF80
0FFFFFFF80
07FFFFFF00
03FFFFFE00
00FFFFF800
007FFFF000
001FFFC000
0003FE0000
ENDCHAR
STARTCHAR 0046
ENCODING 70
SWIDTH 986 0
DWIDTH 37 0
BBX 36 36 1 -6
BITMAP
FFFFFFFFF0
FFFFFFFFF0
FFFFFFFFF0
FFFFFFFFF0
FFFFFFFFF0
FFFFFFFFF0
FFFFFFFFF0
FFFFFFFFF0
FFFFFFFFF0
FFFFFFFFF0
FFFFFFFFF0
FFFFFFFFF0
FFFFFFFFF0
FFFFFFFFF0
FFFFFFFFF0
FFFFFFFFF0
FFFFFFFFF0
FFFFFFFFF0
FFFFFFFFF0
FFFFFFFFF0
FFFFFFFFF0
FFFFFFFFF0
FFFFFFFFF0
FFFFFFFFF0
FFFFFFFFF0
FFFFFFFFF0
FFFFFFFFF0
FFFFFFFFF0
FFFFFFFFF0
FFFFFFFFF0
FFFFFFFFF0
FFFFFFFFF0
FFFFFFFFF0
FFFFFFFFF0
FFFFFFFFF0
FFFFFFFFF0
ENDCHAR
STARTCHAR 0047
ENCODING 71
SWIDTH 986 0
DWIDTH 37 0
BBX 32 39 3 -7
BITMAP
FF000001
FF000003
FF00000F
FF00001F
FF00007F
FF0001FF
FF0003FF
FF000FFF
FF003FFF
FF007FFF
FF01FFFF
FF07FFFF
FF0FFFFF
FF3FFFFF
FF7FFFFF
FFFFFFFF
FFFFFFFF
FFFFFFFF
FFFFFFFF
FFFFFFFF
FFFFFFFF
FFFFFFFF
FFFFFFFF
FFFFFFFF
FFFFFFFF
FF7FFFFF
FF3FFFFF
FF0FFFFF
FF03FFFF
FF01FFFF
FF007FFF
FF001FFF
FF000FFF
FF0003FF
FF0001FF
FF00007F
FF00001F
FF00000F
FF000003
ENDCHAR
STARTCHAR 0048
ENCODING 72
SWIDTH 986 0
DWIDTH 37 0
BBX 37 35 0 -5
BITMAP
0000010008
0000030018
0000070038
00001F0078
00003F01F8
00007F03F8
0001FF07F8
0003FF1FF8
0007FF3FF8
001FFE7FF8
003FF9FFF8
007FF3FFF8
00FFE7FFF8
03FF9FFFF8
07FF3FFFF8
0FFE7FFFF8
3FF9FFFFF8
FFF7FFFFF8
7FF3FFFFF8
3FFCFFFFF8
0FFE7FFFF8
07FF3FFFF8
03FFCFFFF8
00FFE7FFF8
007FF3FFF8
003FFDFFF8
000FFE7FF8
0007FF3FF8
0003FF1FF8
0000FF07F8
00007F03F8
00003F01F8
00000F0078
0000070038
0000030018
ENDCHAR
STARTCHAR 0049
ENCODING 73
SWIDTH 986 0
DWIDTH 37 0
BBX 37 36 0 -6
BITMAP
F100000000
F1C0000000
F1E0000000
F1F0000000
F1F0000000
F1F1000000
F1F1C00000
F1F1F00000
F1F1F80000
F1F1FE0000
F1F1FF8000
F1F1FFC000
F1F1FFF000
F1F1FFFC00
F1F1FFFE00
F1F1FFFF80
F1F1FFFFC0
F1F1FFFFF8
F1F1FFFFF0
F1F1FFFFC0
F1F1FFFF80
F1F1FFFE00
F1F1FFF800
F1F1FFF000
F1F1FFC000
F1F1FF0000
F1F1FE0000
F1F1F80000
F1F1E00000
F1F1C00000
F1F1000000
F1F0000000
F1F0000000
F1E0000000
F1C0000000
F100000000
ENDCHAR
STARTCHAR 004A
ENCODING 74
SWIDTH 986 0
DWIDTH 37 0
BBX 37 36 0 -6
BITMAP
0000200000
0000700000
0000700000
0000F80000
0001FC0000
0003FE0000
0003FE0000
0007FF0000
000FFF8000
001FFFC000
001FFFC000
003FFFE000
007FFFF000
00FFFFF800
00FFFFF800
01FFFFFC00
03FFFFFE00
07FFFFFF00
07FFFFFF00
0FFFFFFF80
1FFFFFFFC0
3FFFFFFFE0
3FFFFFFFF0
7FFFFFFFF8
8000000000
0000000000
0000000000
FFFFFFFFF8
FFFFFFFFF8
FFFFFFFFF8
FFFFFFFFF8
FFFFFFFFF8
FFFFFFFFF8
FFFFFFFFF8
FFFFFFFFF8
FFFFFFFFF8
ENDCHAR
STARTCHAR 004B
ENCODING 75
SWIDTH 986 0
DWIDTH 37 0
BBX 37 38 0 -7
BITMAP
0000000100
0000000780
0000000F80
0000000F80
0000001F80
0000003F00
0000003E00
0000007E00
0000007C00
000000FC00
000000F800
000001F800
1FFFFFF000
3FFFFFE000
7FFFFFF000
7FFFFFF000
BFFFFFF800
01FFFFF800
000FFFFC00
00003FFC00
00007FFE00
00007FFF00
0000FDFF00
0000F8FF80
0001F87F80
0001F03FC0
0003E01FC0
0003E01FE0
007FC00FF0
00FF8007F0
01FF8003F8
00FFC001F0
000FC000F0
0003E00060
0001E00040
0000C00000
0000C00000
0000400000
ENDCHAR
STARTCHAR 004C
ENCODING 76
SWIDTH 986 0
DWIDTH 37 0
BBX 31 39 3 -7
BITMAP
00000080
00000080
000000C0
000001C0
000001C0
00FFFDE0
03FFFFE0
07FFFFF0
0FFFFFF0
1FFFFFF0
3E00FFF8
70003FF8
C0003FFC
00007FFC
00007FFE
0000FFFE
0000FFE0
0001E000
00020000
00000000
00000000
00008000
001F0000
0FFE0000
FFFE0000
7FFC0000
7FFC0000
7FF80006
3FF8001C
3FFE00F8
1FFFFFF0
1FFFFFE0
1FFFFFC0
0FFFFF80
0F3FFE00
07000000
07000000
06000000
02000000
ENDCHAR
STARTCHAR 004D
ENCODING 77
SWIDTH 986 0
DWIDTH 37 0
BBX 37 31 0 -3
BITMAP
0007C00000
003FFC0000
00FFFF0000
03FFFF8000
07FFFFC000
0FF01FE000
1FC007F000
1F8001F800
3F0000FC00
3E00007C00
7C00007C00
7C00003E00
7800003E08
F80007FFF0
F80003FFE0
F80001FFE0
F80000FFC0
F800007F80
F800003F00
7C00003E00
7C00001C00
7C00000800
3E00000000
3F00000000
1F80000000
0FE0060000
0FFC3E0000
07FFFF0000
01FFFF0000
00FFFE0000
001FF80000
ENDCHAR
STARTCHAR 004E
ENCODING 78
SWIDTH 986 0
DWIDTH 37 0
BBX 37 26 0 -1
BITMAP
00000003C0
00000007E0
0000000FF0
0000001FF8
0000003FF8
0000007FF0
000000FFE0
0C0001FFC0
3E0003FF80
7F0007FF00
7F800FFE00
FFC01FFC00
FFE03FF800
7FF07FF000
3FF8FFE000
1FFDFFC000
0FFFFF8000
07FFFF0000
03FFFE0000
01FFFC0000
00FFF80000
007FF00000
003FE00000
001FC00000
000F800000
0007000000
ENDCHAR
STARTCHAR 004F
ENCODING 79
SWIDTH 986 0
DWIDTH 37 0
BBX 37 36 0 -6
BITMAP
3FE0000000
7FFC000000
FFFF800000
FFFFE00000
7FFFF80000
7FFFFC0000
0FFFFF0000
001FFF8000
0003FFC000
0000FFE000
18003FF000
7FE01FF800
7FF80FFC00
FFFE03FE00
FFFF81FE00
7FFFC1FF00
3FFFE0FF00
01FFF07F80
003FF83F80
000FFC3FC0
0007FC1FC0
0003FE1FE0
0001FF0FE0
0000FF0FE0
0F807F07F0
3FE07F87F0
7FF03F87F0
7FF03F87F0
7FF01FC3F0
FFF81FC3F8
FFF81FC3F8
7FF01FC3F8
7FF01FC3F8
7FF01FC3F8
3FE00FC3F0
0F800781E0
ENDCHAR
STARTCHAR 0050
ENCODING 80
SWIDTH 986 0
DWIDTH 37 0
BBX 35 38 1 -7
BITMAP
0007FC0000
003FFF8000
007FFFC000
00FFFFE000
01FFFFF000
03FF1FF800
07F803FC00
07F001FC00
0FE000FE00
0FC0007E00
0FC0007E00
0F80003E00
1F80003F00
1F80003F00
1F80003F00
1F80003F00
1F80003F00
FFFFFFFFE0
FFFFFFFFE0
FFFFFFFFE0
FFFFFFFFE0
FFFFFFFFE0
FFFF1FFFE0
FFFE0FFFE0
FFFE0FFFE0
FFFE0FFFE0
FFFF1FFFE0
FFFF1FFFE0
FFFF1FFFE0
FFFF1FFFE0
FFFF1FFFE0
FFFF1FFFE0
FFFF1FFFE0
FFFFFFFFE0
FFFFFFFFE0
FFFFFFFFE0
FFFFFFFFE0
FFFFFFFFE0
ENDCHAR
STARTCHAR 0051
ENCODING 81
SWIDTH 986 0
DWIDTH 37 0
BBX 37 36 0 -6
BITMAP
01FFFFF800
01FFFFF800
01FFFFF800
01FFFFF800
01FFFFF800
01FFFFF800
01FFFFF800
01FFFFF800
01FFFFF800
01FFFFF800
01FFFFF800
01FFFFF800
01FFFFF800
0000300000
0000300000
0000300000
0000300000
0000300000
0000300000
00FFFFFC00
0080000400
0080000400
0080000400
FFFF07FFF8
FFFF07FFF8
FFFF07FFF8
FFFF07FFF8
FFFF07FFF8
FFFF07FFF8
FFFF07FFF8
FFFF07FFF8
FFFF07FFF8
FFFF07FFF8
FFFF07FFF8
FFFF07FFF8
FFFF07FFF8
ENDCHAR
STARTCHAR 0052
ENCODING 82
SWIDTH 986 0
DWIDTH 37 0
BBX 37 22 0 1
BITMAP
0003000000
0003800000
0001E00000
0001F00000
03FFF8FE00
0FFFFCFF80
1FFFFEFFC0
3FFFFCFFE0
7F81F00FF0
7E01E001F0
7C03C000F0
F8038000F8
F8000000F8
F8000000F8
F8000000F8
7C000001F0
7E000003F0
3FFFFFFFF0
3FFFFFFFE0
1FFFFFFFC0
07FFFFFF00
01FFFFFC00
ENDCHAR
STARTCHAR 0053
ENCODING 83
SWIDTH 986 0
DWIDTH 37 0
BBX 37 30 0 -3
BITMAP
000001E000
000003F000
000007F800
00000FFC00
00001FFE00
7FFF3FFF00
FFFF7FFF80
FFFEFFFFC0
FFFDFFFFE0
FFFBFFFFF0
FFFBFFF7F0
FF03F3F1F8
FC0383F070
F9FC7FF788
F9FFFFF7F8
FBFFFFF7F0
FBFFFFF7F0
F3FFFFF7F0
F7FFFFF7F0
F7FFFFF7E0
E7FFFFF7E0
E7FFFFF7E0
EFFFFFF7C0
EFFFFDF7C0
CFFFFE0FC0
DFFFFFFFC0
DFFFFFFF80
5FFFFFFF80
3FFFFFFF80
1FFFFFFF00
ENDCHAR
STARTCHAR 0054
ENCODING 84
SWIDTH 986 0
DWIDTH 37 0
BBX 37 36 0 -6
BITMAP
0007FF0000
001FFFC000
007FFFF000
01FFFFFC00
03FFFFFE00
07FF07FF00
0FF800FF80
1FE0003F80
1FF0001FC0
3FF8000FE0
3FFC0007E0
7E7E0003F0
7E3F0003F0
7C1F8003F0
7C0FC001F0
FC07E001F8
FC03F001F8
FC01F801F8
FC00FC01F8
FC007E01F8
FC003F01F8
7C001F81F0
7E000FC3F0
7E0007E3F0
7F0003F7E0
3F0001FFE0
3F8000FFE0
1FC0007FC0
0FE0003F80
0FF800FF80
07FF07FF00
03FFFFFE00
00FFFFF800
007FFFF000
001FFFC000
0003FE0000
ENDCHAR
STARTCHAR 0055
ENCODING 85
SWIDTH 986 0
DWIDTH 37 0
BBX 37 32 0 -4
BITMAP
0000300000
0000700000
0000F00000
0001F00000
0003F00000
0007F00000
000FF00000
001FF00000
003FF00000
7FFFF00000
FFFFF00000
FFFFF00000
FFFFF00000
FFFFF00000
FFFFF0FFF8
FFFFF0FFF8
FFFFF0FFF8
FFFFF0FFF8
FFFFF00000
FFFFF00000
FFFFF00000
FFFFF00000
003FF00000
001FF00000
000FF00000
0007F00000
0003F00000
0003F00000
0001F00000
0000F00000
0000700000
0000300000
ENDCHAR
STARTCHAR 0056
ENCODING 86
SWIDTH 986 0
DWIDTH 37 0
BBX 37 34 0 -5
BITMAP
0000100000
0000380000
0000780000
0000F80000
0001F80000
0003F80000
0003F80000
0007F80000
000FF80000
001FF80000
7FFFF80F00
FFFFF80F00
FFFFF80F00
FFFFF80F00
FFFFF80F00
FFFFF9FFF8
FFFFF9FFF8
FFFFF9FFF8
FFFFF9FFF8
FFFFF80F00
FFFFF80F00
FFFFF80F00
FFFFF80F00
7FFFF80F00
001FF80000
000FF80000
0007F80000
0003F80000
0001F80000
0001F80000
0000F80000
0000780000
0000380000
0000100000
ENDCHAR
STARTCHAR 0057
ENCODING 87
SWIDTH 986 0
DWIDTH 37 0
BBX 37 36 0 -6
BITMAP
00E0003E00
07F800FF80
1FFE03FFC0
3FFF07FFE0
7FFF8FFFF0
7FFF9FFFF0
FFFFDFFFF0
FFFFFFFFF8
FFFFFFFFF8
FFFFFFFFF8
7FFFFFFFF8
7FFFFFFFF0
7FFFFFFFF0
3FFFFFFFF0
1FFFFFFFE0
1FFFFFFFC0
0FFFFFFF80
07FFFFFF80
03FFFFFF00
01FFFFFE00
00FFFFFC00
007FFFF800
003FFFF000
001FFFE000
000FFFC000
0007FF8000
0003FF0000
0001FE0000
0000FC0000
0000F80000
0000780000
0000300000
0000300000
0000200000
0000200000
0000200000
ENDCHAR
STARTCHAR 0058
ENCODING 88
SWIDTH 986 0
DWIDTH 37 0
BBX 31 39 3 -7
BITMAP
00800000
01E00000
01E00000
01E00000
01E00000
01E00000
01E00000
01E00000
01E00000
01E00000
01E00000
01E18000
01E3C000
01E3C600
01E3CF00
01E3CF1E
01E3CF1E
71E3CF1E
F9FFFFFE
F9FFFFFE
F9FFFFFE
F9FFFFFE
F9FFFFFE
F9FFFFFE
F9FFFFFE
FFFFFFFE
FFFFFFFE
FFFFFFFE
7FFFFFFE
7FFFFFFE
3FFFFFFE
1FFFFFFE
1FFFFFFE
0FFFFFFE
07FFFFFE
07FFFFFE
03FFFFFE
01FFFFFC
01FFFFFC
ENDCHAR
STARTCHAR 0059
ENCODING 89
SWIDTH 986 0
DWIDTH 37 0
BBX 27 39 5 -7
BITMAP
00040000
000E0000
000E0000
000E0000
038E3800
038E3800
038E3800
038E3800
038E3800
038E38E0
038E38E0
038E38E0
038E38E0
038E38E0
038E38E0
038E38E0
038E38E0
038E38E0
038E38E0
E38E39E0
E3FFFFE0
E3FFFFE0
E3FFFFE0
E3FFFFE0
E3FFFFE0
E3FFFFE0
F7FFFFE0
FFFFFFE0
FFFFFFE0
FFFFFFE0
7FFFFFE0
7FFFFFE0
3FFFFFE0
1FFFFFE0
1FFFFFE0
0FFFFFE0
07FFFFE0
07FFFFE0
03FFFFC0
ENDCHAR
STARTCHAR 005A
ENCODING 90
SWIDTH 986 0
DWIDTH 37 0
BBX 37 38 0 -7
BITMAP
0000000300
0000000300
00000C0380
00001C0380
00003C01C0
00007C01C0
0000FC31E0
0001FC70E0
0003FC38E0
0007FC38F0
000FFC38F0
001FFC3CF0
7FFFFC3C70
FFFFFC1C70
FFFFFC1C78
FFFFFC1C78
FFFFFC1C78
FFFFFC1C78
FFFFFC1C78
FFFFFC1C78
FFFFFC1C78
FFFFFC1C78
FFFFFC1C78
FFFFFC1C78
FFFFFC1C70
FFFFFC3C70
7FFFFC38F0
001FFC38F0
000FFC38E0
0007FC70E0
0003FC71E0
0001FC61C0
0000FC01C0
00007C03C0
00003C0380
00001C0380
00000C0300
0000080000
ENDCHAR
STARTCHAR 005B
ENCODING 91
SWIDTH 986 0
DWIDTH 37 0
BBX 36 36 1 -6
BITMAP
8000000000
E000000000
F800000000
FE00000000
FF80000000
FFE0000000
FFF8000000
FFFE000000
FFFF800000
FFFFE00000
FFFFF80000
FFFFFE0000
FFFFFF8000
FFFFFFE000
FFFFFFF800
FFFFFFFE00
FFFFFFFF80
FFFFFFFFF0
FFFFFFFFC0
FFFFFFFF00
FFFFFFFC00
FFFFFFF000
FFFFFFC000
FFFFFF0000
FFFFFC0000
FFFFF00000
FFFFC00000
FFFF000000
FFFC000000
FFF0000000
FFC0000000
FF00000000
FC00000000
F000000000
C000000000
8000000000
ENDCHAR
STARTCHAR 005C
ENCODING 92
SWIDTH 986 0
DWIDTH 37 0
BBX 37 36 0 -6
BITMAP
FFFFFFFFF8
7FFFFFFFF0
3FFFFFFFE0
3FFFFFFFE0
1FFFFFFFC0
1FFFFFFFC0
0FFFFFFF80
0FFFFFFF80
07FFFFFF00
07FFFFFF00
03FFFFFE00
03FFFFFE00
01FFFFFC00
01FFFFFC00
00FFFFF800
00FFFFF800
007FFFF000
007FFFF000
003FFFE000
003FFFE000
001FFFC000
001FFFC000
000FFF8000
000FFF8000
0007FF0000
0007FF0000
0003FE0000
0003FE0000
0001FC0000
0001FC0000
0000F80000
0000F80000
0000700000
0000700000
0000200000
0000200000
ENDCHAR
STARTCHAR 005D
ENCODING 93
SWIDTH 986 0
DWIDTH 37 0
BBX 37 36 0 -6
BITMAP
0000000018
0000000078
00000001F8
00000007F8
0000001FF8
0000007FF8
000001FFF8
000007FFF8
00001FFFF8
00007FFFF8
0001FFFFF8
0007FFFFF8
001FFFFFF8
007FFFFFF8
01FFFFFFF8
07FFFFFFF8
1FFFFFFFF8
7FFFFFFFF8
FFFFFFFFF8
1FFFFFFFF8
07FFFFFFF8
01FFFFFFF8
007FFFFFF8
001FFFFFF8
0007FFFFF8
0001FFFFF8
00007FFFF8
00001FFFF8
000007FFF8
000001FFF8
0000007FF8
0000001FF8
00000007F8
00000001F8
0000000078
0000000018
ENDCHAR
STARTCHAR 005E
ENCODING 94
SWIDTH 986 0
DWIDTH 37 0
BBX 37 13 0 6
BITMAP
0200000200
0200000200
0400000100
0C00000180
1C000000C0
3FFFFFFFE0
FFFFFFFFF8
7FFFFFFFF0
3FFFFFFFE0
1C000000C0
0C00000180
0400000100
0200000200
ENDCHAR
STARTCHAR 005F
ENCODING 95
SWIDTH 986 0
DWIDTH 37 0
BBX 13 39 12 -7
BITMAP
0200
0300
0780
0FC0
1FE0
3FF0
C718
0700
0700
0700
0700
0700
0700
0700
0700
0700
0700
0700
0700
0700
0700
0700
0700
0700
0700
0700
0700
0700
0700
0700
0700
0700
8708
6730
3FE0
1FC0
0F80
0700
0200
ENDCHAR
STARTCHAR 0060
ENCODING 96
SWIDTH 986 0
DWIDTH 37 0
BBX 14 39 12 -7
BITMAP
0700
0700
0700
0700
0700
0700
0700
0700
0700
0700
0700
0700
0700
0700
0700
0700
0700
0700
0700
0700
0700
0700
0700
0700
0700
0700
0700
0700
0700
0700
0700
0700
8704
6738
3FF0
1FE0
0FC0
0780
0300
ENDCHAR
STARTCHAR 0061
ENCODING 97
SWIDTH 986 0
DWIDTH 37 0
BBX 37 21 0 2
BITMAP
0000000100
0000000100
0007C00300
003FFC0700
007FFF0700
01FFFFCF80
03FFFFFF80
07FFFFFF80
07FFFFFFC0
0FFFFFFFC0
1FE1FFFFC0
1E003FFFC0
3C000FFFE0
300007FFE0
600007FFE0
40000FFFE0
80001FFFF0
00003FFFF0
00007FFFF0
00007FFFF0
0001FFFFF8
ENDCHAR
STARTCHAR 0062
ENCODING 98
SWIDTH 986 0
DWIDTH 37 0
BBX 36 21 1 2
BITMAP
0400000000
0400000000
0C00000000
0E01FF8000
0E0FFFE000
0F1FFFF000
1FFFFFF800
1FFFFFFC00
1FFFFFFE00
1FFFFFFF00
3FFFFCFF00
3FFFC00F80
3FFF0003C0
3FFE0000C0
7FFE000060
7FFF000020
7FFF800010
FFFFC00000
FFFFE00000
FFFFF00000
FFFFF80000
ENDCHAR
STARTCHAR 0063
ENCODING 99
SWIDTH 986 0
DWIDTH 37 0
BBX 37 39 0 -8
BITMAP
0001FC0000
0001FE0000
0003FE0000
0003FE0000
0003FE0000
0003FE0000
0003FE0000
0003FE0000
0003FE0000
0003FE0000
0003FE0000
0003FE0000
0003FE0000
0003FE0000
0003FE0000
0003FE0000
0003FE0000
0003FE0000
7C03FE01F0
7F03FE07F0
FFC3FE1FF8
FFF3FE7FF8
7FFFFFFFF0
3FFFFFFFE0
1FFFFFFFC0
0FFFFFFF80
07FFFFFF00
03FFFFFE00
01FFFFFC00
00FFFFF800
007FFFF000
003FFFE000
001FFFC000
000FFF8000
0007FF0000
0003FE0000
0001FC0000
0000F80000
0000700000
ENDCHAR
STARTCHAR 0064
ENCODING 100
SWIDTH 986 0
DWIDTH 37 0
BBX 36 36 0 -5
BITMAP
0000000F00
0000001F80
0000003FC0
1C00007FE0
3E0000FFF0
7F0001FFF0
7F0003FFF0
FF8007FFF0
FF800FFFE0
FF801FFFC0
FFC03FFF80
FFC07FFF00
FFC0FFFE00
FFE1FFFC00
FFE3FFF800
FFE7FFF000
FFFFFFE000
FFFFFFC000
FFFFFF8000
FFFFFF0000
FFFFFE0000
FFFFFC0000
FFFFF80000
FFFFF00000
FFFFE00000
FFFFFC0000
FFFFFF8000
FFFFFFF000
FFFFFFFC00
FFFFFFFF00
FFFFFFFF80
FFFFFFFF80
7FFFFFFF80
7FFFFFFF80
3FFFFFFF00
1FFFFFFE00
ENDCHAR
STARTCHAR 0065
ENCODING 101
SWIDTH 986 0
DWIDTH 37 0
BBX 36 36 1 -5
BITMAP
0F00000000
1F80000000
3FC0000000
7FE0000380
FFF00007C0
FFF8000FE0
FFFC000FE0
FFFE001FF0
7FFF001FF0
3FFF801FF0
1FFFC03FF0
0FFFE03FF0
07FFF03FF0
03FFF87FF0
01FFFC7FF0
00FFFE7FF0
007FFFFFF0
003FFFFFF0
001FFFFFF0
000FFFFFF0
0007FFFFF0
0003FFFFF0
0001FFFFF0
0000FFFFF0
00007FFFF0
0003FFFFF0
001FFFFFF0
00FFFFFFF0
03FFFFFFF0
0FFFFFFFF0
1FFFFFFFF0
1FFFFFFFF0
1FFFFFFFE0
1FFFFFFFE0
0FFFFFFFC0
07FFFFFF80
ENDCHAR
STARTCHAR 0066
ENCODING 102
SWIDTH 986 0
DWIDTH 37 0
BBX 37 34 0 -5
BITMAP
0001E00000
0003F00000
0007F00000
000FF00000
001FF00000
003FE00000
007FE00000
00FFC00000
01FFC00000
03FF800000
07FF800000
0FFF000000
1FFF000000
3FFFFFFFF0
7FFFFFFFF8
FFFFFFFFF8
FFFFFFFFF8
FFFFFFFFF8
7FFFFFFFF8
3FFFFFFFF8
1FFFFFFFF0
0FFF000000
07FF800000
03FF800000
01FFC00000
00FFC00000
007FE00000
003FE00000
001FF00000
000FF00000
0007F00000
0003F00000
0001F00000
0000400000
ENDCHAR
STARTCHAR 0067
ENCODING 103
SWIDTH 986 0
DWIDTH 37 0
BBX 37 34 0 -5
BITMAP
00003C0000
00007E0000
00007F0000
00007F8000
00007FC000
00003FE000
00003FF000
00001FF800
00001FFC00
00000FFE00
00000FFF00
000007FF80
000007FFC0
7FFFFFFFE0
FFFFFFFFF0
FFFFFFFFF8
FFFFFFFFF8
FFFFFFFFF8
FFFFFFFFF8
FFFFFFFFF0
7FFFFFFFE0
000007FFC0
000007FF80
00000FFF00
00000FFE00
00001FFC00
00001FF800
00003FF000
00003FE000
00007FC000
00007F8000
00007F0000
00007E0000
00003C0000
ENDCHAR
STARTCHAR 0068
ENCODING 104
SWIDTH 986 0
DWIDTH 37 0
BBX 37 39 0 -7
BITMAP
0000200000
0000F80000
0001FC0000
0003FE0000
0007FF0000
000FFF8000
001FFFC000
003FFFE000
007FFFF000
00FFFFF800
01FFFFFC00
03FFFFFE00
07FFFFFF00
0FFFFFFF80
1FFFFFFFC0
3FFFFFFFE0
7FFFFFFFF0
7FFBFEFFF8
FFE3FE3FF8
7F83FE0FF8
7E03FE03F0
3803FE00E0
0003FE0000
0003FE0000
0003FE0000
0003FE0000
0003FE0000
0003FE0000
0003FE0000
0003FE0000
0003FE0000
0003FE0000
0003FE0000
0003FE0000
0003FE0000
0003FE0000
0003FE0000
0003FE0000
0001FE0000
ENDCHAR
STARTCHAR 0069
ENCODING 105
SWIDTH 986 0
DWIDTH 37 0
BBX 37 37 0 -7
BITMAP
0FFFFFFC00
3FFFFFFF00
7FFFFFFF80
FFFFFFFF80
FFFFFFFFC0
FFFFFFFF80
FFFFFFFF80
FFFFFFFF00
FFFFFFF800
FFFFFFE000
FFFFFF0000
FFFFF80000
FFFFE00000
FFFFF00000
FFFFF80000
FFFFFC0000
FFFFFE0000
FFFFFF0000
FFFFFF8000
FFFFFFC000
FFFFFFE000
FFE7FFF000
FFE3FFF800
FFC1FFFC00
FFC0FFFE00
FFC07FFF00
FFC03FFF80
FF801FFFC0
FF800FFFE0
FF0007FFF0
FF0003FFF8
7E0001FFF8
3E0000FFF0
1800007FF0
0000003FE0
0000001FC0
0000000F80
ENDCHAR
STARTCHAR 006A
ENCODING 106
SWIDTH 986 0
DWIDTH 37 0
BBX 37 37 0 -6
BITMAP
01FFFFFF80
07FFFFFFE0
0FFFFFFFF0
0FFFFFFFF8
0FFFFFFFF8
0FFFFFFFF8
0FFFFFFFF8
03FFFFFFF8
00FFFFFFF8
003FFFFFF8
0003FFFFF8
0000FFFFF8
00003FFFF8
00007FFFF8
0000FFFFF8
0001FFFFF8
0003FFFFF8
0007FFFFF8
000FFFFFF8
001FFFFFF8
003FFFBFF8
007FFF3FF8
00FFFE3FF8
01FFFC1FF8
03FFF81FF8
07FFF01FF8
0FFFE00FF8
1FFFC00FF8
3FFF800FF8
7FFF0007F8
FFFE0007F8
FFFC0003F0
7FF80003E0
7FF0000080
3FE0000000
1FC0000000
0F80000000
ENDCHAR
STARTCHAR 006B
ENCODING 107
SWIDTH 986 0
DWIDTH 37 0
BBX 37 32 0 -4
BITMAP
0000080000
0000040000
0000060000
0000070000
0000078000
000007C000
000007E000
000007F000
000FFFF800
007FFFFC00
01FFFFFE00
03FFFFFF00
07FFFFFF80
0FFFFFFFC0
1FFFFFFFE0
3FFFFFFFF0
3FFFFFFFF8
3FFE7FFFE0
7FC01FFF80
7F803FFE00
7E003FFC00
7C003FF000
F8003FC000
F0003F0000
F0007E0000
E000780000
E000600000
C000400000
C000000000
8000000000
8000000000
8000000000
ENDCHAR
STARTCHAR 006C
ENCODING 108
SWIDTH 1093 0
DWIDTH 41 0
BBX 41 36 0 -6
BITMAP
000020000000
000040000000
0000C0000000
0001C0000000
0003C0000000
0007C0000000
000FC0000000
001FC0000000
003FC0000000
007FFFC00000
00FFFFFC0000
01FFFFFF0000
03FFFFFFC000
07FFFFFFE000
0FFFFFFFF000
1FFFFFFFF800
3FFFFFFFFC00
7FFFFFFFFC00
FFFFFFFFFE00
3FFFFFFFFE00
0FFFF007FE00
03FFF801FF00
01FFF800FF00
007FF8003F00
001FF8001F00
0007F8001F00
0003F8000F80
0000FC000780
00003C000780
00001C000380
000004000380
000000000100
000000000100
000000000100
000000000080
000000000080
ENDCHAR
STARTCHAR 006D
ENCODING 109
SWIDTH 986 0
DWIDTH 37 0
BBX 33 39 2 -7
BITMAP
003FFE0000
003FFE0000
003FFE0000
003FFE0000
003FFE0000
003FFE0000
003FFE0000
003FFE0000
003FFE0000
003FFE0000
003FFE0000
003FFE0000
003FFE0000
003FFE0000
003FFE0000
003FFE0000
003FFE0000
003FFE0000
003FFE0000
003FFE0000
003FFE0000
003FFE0000
FFFFFFFF80
3FFFFFFE00
1FFFFFFC00
0FFFFFFC00
07FFFFF800
07FFFFF000
03FFFFE000
01FFFFC000
00FFFF8000
007FFF0000
003FFE0000
001FFC0000
000FF80000
0007F00000
0003E00000
0001C00000
0000800000
ENDCHAR
STARTCHAR 006E
ENCODING 110
SWIDTH 986 0
DWIDTH 37 0
BBX 37 30 0 -3
BITMAP
0000800000
0001800000
0003800000
0007800000
001F800000
003F800000
007F800000
00FF800000
01FF800000
03FFFFFFF8
07FFFFFFF8
0FFFFFFFF8
1FFFFFFFF8
3FFFFFFFF8
FFFFFFFFF8
7FFFFFFFF8
3FFFFFFFF8
1FFFFFFFF8
0FFFFFFFF8
07FFFFFFF8
03FFFFFFF8
01FF800000
00FF800000
003F800000
001F800000
000F800000
0007800000
0003800000
0001800000
0000800000
ENDCHAR
STARTCHAR 006F
ENCODING 111
SWIDTH 986 0
DWIDTH 37 0
BBX 37 30 0 -3
BITMAP
0000080000
00000C0000
00000E0000
00000F0000
00000FC000
00000FE000
00000FF000
00000FF800
00000FFC00
FFFFFFFE00
FFFFFFFF00
FFFFFFFF80
FFFFFFFFC0
FFFFFFFFE0
FFFFFFFFF8
FFFFFFFFF0
FFFFFFFFE0
FFFFFFFFC0
FFFFFFFF80
FFFFFFFF00
FFFFFFFE00
00000FFC00
00000FF800
00000FE000
00000FC000
00000F8000
00000F0000
00000E0000
00000C0000
0000080000
ENDCHAR
STARTCHAR 0070
ENCODING 112
SWIDTH 986 0
DWIDTH 37 0
BBX 33 38 2 -7
BITMAP
0000C00000
0001C00000
0003E00000
0007F00000
000FF80000
001FFC0000
003FFE0000
007FFF0000
00FFFF8000
01FFFFC000
03FFFFE000
03FFFFF000
07FFFFF800
0FFFFFFC00
1FFFFFFC00
3FFFFFFE00
FFFFFFFF80
003FFE0000
003FFE0000
003FFE0000
003FFE0000
003FFE0000
003FFE0000
003FFE0000
003FFE0000
003FFE0000
003FFE0000
003FFE0000
003FFE0000
003FFE0000
003FFE0000
003FFE0000
003FFE0000
003FFE0000
003FFE0000
003FFE0000
003FFE0000
003FFE0000
ENDCHAR
STARTCHAR 0071
ENCODING 113
SWIDTH 986 0
DWIDTH 37 0
BBX 33 38 2 -7
BITMAP
0000020000
0000030000
0000070000
00000F8000
00000FC000
00001FC000
00001FE000
00003FE000
00003FF000
00007FF800
FC00FFF800
FC00FFFC00
FC01FFFC00
FC01FFFE00
FC03FFFE00
FC03FFFF00
FC07FFFF80
FC0FFFFF80
FC000FC000
FC000FC000
FC000FC000
FC000FC000
FC000FC000
FC000FC000
FC000FC000
FC000FC000
FC001FC000
FC001FC000
FE001F8000
7E003F8000
7F007F8000
7FC0FF0000
3FFFFF0000
1FFFFE0000
0FFFFC0000
07FFF80000
03FFF00000
00FFC00000
ENDCHAR
STARTCHAR 0072
ENCODING 114
SWIDTH 986 0
DWIDTH 37 0
BBX 37 32 0 -4
BITMAP
0000400000
0001800000
0003800000
000F800000
003F800000
00FF800000
01FF800000
07FFFFC000
1FFFFFFC00
7FFFFFFF00
FFFFFFFF80
1FFFFFFFC0
0FFFFFFFE0
03FF803FE0
00FF8007F0
003F8003F0
001F8003F0
00078001F8
00018001F8
00008001F8
00000001F8
00000001F8
00000003F0
00000003F0
0000000FF0
0000003FE0
003FFFFFE0
003FFFFFC0
003FFFFF80
003FFFFE00
003FFFFC00
003FFF8000
ENDCHAR
STARTCHAR 0073
ENCODING 115
SWIDTH 986 0
DWIDTH 37 0
BBX 37 28 0 -2
BITMAP
000FFF8000
007FFFF000
01FFFFFC00
07FFFFFF00
0FFFFFFF80
1FFFFFFFC0
3FFFFFFFE0
7FFFFFFFE0
7FFFFFFFF0
7FFFFFFFF0
FFFFFFFFF8
FFFFFFFFF8
FFFFFFFFF8
FFFFFFFFF8
7FFFFFFFF0
7FFFFFFFF0
7FFFFFFFF0
3FFFFFFFE0
1FFFFFFFC0
0FFFFFFF80
07FFFFFE00
01FFFFFC00
007FFFE000
000FFF0000
0007C00000
0007800000
000F000000
003C000000
ENDCHAR
STARTCHAR 0074
ENCODING 116
SWIDTH 986 0
DWIDTH 37 0
BBX 37 30 0 -3
BITMAP
7FFFFFFFF0
FFFFFFFFF8
FFFFFFFFF8
FFFFFFFFF8
FFFFFFFFF8
FFFFFFFFF8
FFFFFFFFF8
FFFFFFFFF8
FFFFFFFFF8
FFFFFFFFF8
FFFFFFFFF8
FFFFFFFFF8
FFFFFFFFF8
FFFFFFFFF8
FFFFFFFFF8
FFFFFFFFF8
FFFFFFFFF8
FFFFFFFFF8
FFFFFFFFF8
FFFFFFFFF8
FFFFFFFFF8
FFFFFFFFF8
7FFFFFFFF0
0000F80000
0001F00000
0001C00000
0003800000
0003000000
0006000000
0004000000
ENDCHAR
STARTCHAR 0075
ENCODING 117
SWIDTH 986 0
DWIDTH 37 0
BBX 37 28 0 -2
BITMAP
000FFF8000
007FFFF000
01FFFFFC00
07FFFFFF00
0FFFFFFF80
1FFFFFFFC0
3FFFFFFFE0
7FFFFFFFF0
7FFFFFFFF0
FFFFFFFFF0
FFFFFFFFF8
FFFFFFFFF8
FFFFFFFFF8
FFFFFFFFF8
7FFFFFFFF0
7FFFFFFFF0
7FFFFFFFE0
3FFFFFFFE0
1FFFFFFFC0
0FFFFFFF80
03FFFFFF00
01FFFFFC00
003FFFF000
0007FF8000
00001F0000
00000F0000
0000078000
000001E000
ENDCHAR
STARTCHAR 0076
ENCODING 118
SWIDTH 986 0
DWIDTH 37 0
BBX 37 30 0 -3
BITMAP
7FFFFFFFF0
FFFFFFFFF8
FFFFFFFFF8
FFFFFFFFF8
FFFFFFFFF8
FFFFFFFFF8
FFFFFFFFF8
FFFFFFFFF8
FFFFFFFFF8
FFFFFFFFF8
FFFFFFFFF8
FFFFFFFFF8
FFFFFFFFF8
FFFFFFFFF8
FFFFFFFFF8
FFFFFFFFF8
FFFFFFFFF8
FFFFFFFFF8
FFFFFFFFF8
FFFFFFFFF8
FFFFFFFFF8
FFFFFFFFF8
7FFFFFFFF0
0000F80000
00007C0000
00001C0000
00000E0000
0000060000
0000030000
0000010000
ENDCHAR
STARTCHAR 0077
ENCODING 119
SWIDTH 986 0
DWIDTH 37 0
BBX 37 36 0 -6
BITMAP
0000F80000
0001FC0000
0001FC0000
0001FC0000
03C1FC1E00
07EFFE3F00
07FFFFFF00
07FFFFFF80
07FFFFFF00
07FFFFFF00
03FFFFFE00
03FFFFFC00
03FF07FC00
07FE03FC00
1FFC01FFC0
7FF800FFF0
7FF800FFF0
FFF800FFF8
FFF800FFF8
7FF800FFF0
7FF800FFF0
0FFC01FF80
03FE03FC00
03FF8FF800
01FFFFFC00
03FFFFFE00
07FFFFFF00
07FFFFFF00
07FFFFFF80
07F7FC7F00
07E1FC3F00
03C1FC1E00
0001FC0000
0001FC0000
0001FC0000
0000F80000
ENDCHAR
STARTCHAR 0078
ENCODING 120
SWIDTH 986 0
DWIDTH 37 0
BBX 37 30 0 -2
BITMAP
0CE0000000
1CE0000000
1FEC000000
0FFC000000
FEFC000000
FC38040000
78380F0000
183E1F0F00
3C7E1F9F00
7FFE0FFF00
7FF1BFFF00
07F7FFFE00
0777FFFE00
0627FFFFF0
0003FC1FF8
0001F80FF8
0001F80FF0
0001F00FE0
0007F00F80
000FF80F80
000FF81FC0
000FFE3FE0
0007FFFFF0
00007FFFF0
00003FF9E0
00007FF800
00007CF800
00007CFC00
0000387800
0000007800
ENDCHAR
STARTCHAR 0079
ENCODING 121
SWIDTH 986 0
DWIDTH 37 0
BBX 37 32 0 -3
BITMAP
001FE00000
007FF81F80
00FFFC3FE0
01FF027F00
03FE007C00
03FE00FE30
07FE00FFF0
07FF00FFE0
1FFF81FFC0
7F1FC1FF80
FE0FE3FE00
7E03F7FE00
3E01FFFF00
1E00FFE000
04007F8000
00007F0000
0000FF8000
0003FFC000
0007FFE000
000FF7F000
001FE3F800
007FC1FC00
00FF80FE00
01FF007F00
03FE003F80
0FFC001FC0
1FF8000FE0
1FF0000FF8
1FE00007F0
1FC00003E0
0F000001C0
0600000080
ENDCHAR
STARTCHAR 007A
ENCODING 122
SWIDTH 986 0
DWIDTH 37 0
BBX 37 36 0 -6
BITMAP
0000020000
0000040000
00000C0000
00001C0000
00003C0000
0000780000
0000780000
0000780000
0000F80000
0000F80000
0000F00000
0000F00000
0000F00000
0001F00008
0001E00070
0001E00FE0
0FE1E0FFC0
3FFBFFFF80
7FFBFFFF00
787FFFFC00
F87FFFC000
F07FF80000
FFFFC00000
7FF3C00000
7FEFF00000
1FDFF00000
001FF80000
003E780000
003C780000
003C780000
003C780000
003CF00000
003FF00000
001FE00000
001FC00000
0007800000
ENDCHAR
STARTCHAR 007B
ENCODING 123
SWIDTH 986 0
DWIDTH 37 0
BBX 37 34 0 -5
BITMAP
000000FE00
0000007C00
0000007E00
0000003F00
0000002F80
00000027C0
00000003C0
00000001E0
00000000E0
00000000F0
0000000070
0000000070
0000000070
0000000078
0000000038
0000000038
E000000038
F000000078
F000000078
7000000070
7000000070
78000000F0
78000000F0
3C000001E0
3C000001E0
1E000003C0
0F00000780
0F80000F80
07C0001F00
03F0007E00
01FF03F800
007FFFF000
001FFFC000
0003FE0000
ENDCHAR
STARTCHAR 007C
ENCODING 124
SWIDTH 986 0
DWIDTH 37 0
BBX 37 34 0 -5
BITMAP
03F8000000
01F0000000
03F0000000
07E0000000
0FA0000000
0F20000000
1E00000000
3C00000000
3800000000
7800000000
7000000000
7000000000
7000000000
F000000000
F000000000
E000000000
E000000038
F000000078
F000000078
7000000070
7000000070
7800000070
78000000F0
3C000001E0
3C000001E0
1E000003C0
0F00000780
0F80000F80
07C0001F00
03F0007E00
01FE03FC00
007FFFF000
001FFFC000
0007FE0000
ENDCHAR
STARTCHAR 007D
ENCODING 125
SWIDTH 506 0
DWIDTH 19 0
BBX 0 0 0 0
BITMAP
ENDCHAR
STARTCHAR 007E
ENCODING 126
SWIDTH 506 0
DWIDTH 19 0
BBX 0 0 0 0
BITMAP
ENDCHAR
STARTCHAR 00A0
ENCODING 160
SWIDTH 240 0
DWIDTH 9 0
BBX 0 0 0 0
BITMAP
ENDCHAR
STARTCHAR 00A1
ENCODING 161
SWIDTH 320 0
DWIDTH 12 0
BBX 0 0 0 0
BITMAP
ENDCHAR
STARTCHAR 00A2
ENCODING 162
SWIDTH 560 0
DWIDTH 21 0
BBX 0 0 0 0
BITMAP
ENDCHAR
STARTCHAR 00A3
ENCODING 163
SWIDTH 506 0
DWIDTH 19 0
BBX 0 0 0 0
BITMAP
ENDCHAR
STARTCHAR 00A4
ENCODING 164
SWIDTH 506 0
DWIDTH 19 0
BBX 0 0 0 0
BITMAP
ENDCHAR
STARTCHAR 00A5
ENCODING 165
SWIDTH 613 0
DWIDTH 23 0
BBX 0 0 0 0
BITMAP
ENDCHAR
STARTCHAR 00A6
ENCODING 166
SWIDTH 506 0
DWIDTH 19 0
BBX 0 0 0 0
BITMAP
ENDCHAR
STARTCHAR 00A7
ENCODING 167
SWIDTH 506 0
DWIDTH 19 0
BBX 0 0 0 0
BITMAP
ENDCHAR
STARTCHAR 00A8
ENCODING 168
SWIDTH 506 0
DWIDTH 19 0
BBX 0 0 0 0
BITMAP
ENDCHAR
STARTCHAR 00A9
ENCODING 169
SWIDTH 826 0
DWIDTH 31 0
BBX 0 0 0 0
BITMAP
ENDCHAR
STARTCHAR 00AA
ENCODING 170
SWIDTH 320 0
DWIDTH 12 0
BBX 0 0 0 0
BITMAP
ENDCHAR
STARTCHAR 00AB
ENCODING 171
SWIDTH 480 0
DWIDTH 18 0
BBX 0 0 0 0
BITMAP
ENDCHAR
STARTCHAR 00AC
ENCODING 172
SWIDTH 506 0
DWIDTH 19 0
BBX 0 0 0 0
BITMAP
ENDCHAR
STARTCHAR 00AD
ENCODING 173
SWIDTH 986 0
DWIDTH 37 0
BBX 37 36 0 -6
BITMAP
0007FF0000
003FFFE000
007E01F000
01F0007C00
03C0001E00
0780000700
0F00000380
1F8000C1C0
1CC001C1C0
386003C0E0
303007C060
70180FC070
70041FC030
600FFFC030
600FFFC038
E00FFFC038
E00FFFC038
E00FFFC038
E00FFFC038
E00FFFC038
E00FFFC038
600FFFC030
60003FC030
70001FC070
70000FC070
380007D0E0
380003D0E0
1C0001D9C0
0E00008F80
0F00000780
0780000F00
03C0001E00
00F0007C00
007E03F000
001FFFC000
0003FE0000
ENDCHAR
STARTCHAR 00AE
ENCODING 174
SWIDTH 826 0
DWIDTH 31 0
BBX 0 0 0 0
BITMAP
ENDCHAR
STARTCHAR 00AF
ENCODING 175
SWIDTH 320 0
DWIDTH 12 0
BBX 0 0 0 0
BITMAP
ENDCHAR
STARTCHAR 00B0
ENCODING 176
SWIDTH 346 0
DWIDTH 13 0
BBX 0 0 0 0
BITMAP
ENDCHAR
STARTCHAR 00B1
ENCODING 177
SWIDTH 506 0
DWIDTH 19 0
BBX 0 0 0 0
BITMAP
ENDCHAR
STARTCHAR 00B2
ENCODING 178
SWIDTH 506 0
DWIDTH 19 0
BBX 0 0 0 0
BITMAP
ENDCHAR
STARTCHAR 00B3
ENCODING 179
SWIDTH 506 0
DWIDTH 19 0
BBX 0 0 0 0
BITMAP
ENDCHAR
STARTCHAR 00B4
ENCODING 180
SWIDTH 506 0
DWIDTH 19 0
BBX 0 0 0 0
BITMAP
ENDCHAR
STARTCHAR 00B5
ENCODING 181
SWIDTH 586 0
DWIDTH 22 0
BBX 0 0 0 0
BITMAP
ENDCHAR
STARTCHAR 00B6
ENCODING 182
SWIDTH 506 0
DWIDTH 19 0
BBX 0 0 0 0
BITMAP
ENDCHAR
STARTCHAR 00B7
ENCODING 183
SWIDTH 240 0
DWIDTH 9 0
BBX 0 0 0 0
BITMAP
ENDCHAR
STARTCHAR 00B8
ENCODING 184
SWIDTH 506 0
DWIDTH 19 0
BBX 0 0 0 0
BITMAP
ENDCHAR
STARTCHAR 00B9
ENCODING 185
SWIDTH 506 0
DWIDTH 19 0
BBX 0 0 0 0
BITMAP
ENDCHAR
STARTCHAR 00BA
ENCODING 186
SWIDTH 346 0
DWIDTH 13 0
BBX 0 0 0 0
BITMAP
ENDCHAR
STARTCHAR 00BB
ENCODING 187
SWIDTH 480 0
DWIDTH 18 0
BBX 0 0 0 0
BITMAP
ENDCHAR
STARTCHAR 00BC
ENCODING 188
SWIDTH 853 0
DWIDTH 32 0
BBX 0 0 0 0
BITMAP
ENDCHAR
STARTCHAR 00BD
ENCODING 189
SWIDTH 960 0
DWIDTH 36 0
BBX 0 0 0 0
BITMAP
ENDCHAR
STARTCHAR 00BE
ENCODING 190
SWIDTH 853 0
DWIDTH 32 0
BBX 0 0 0 0
BITMAP
ENDCHAR
STARTCHAR 00BF
ENCODING 191
SWIDTH 373 0
DWIDTH 14 0
BBX 0 0 0 0
BITMAP
ENDCHAR
STARTCHAR 00C0
ENCODING 192
SWIDTH 773 0
DWIDTH 29 0
BBX 0 0 0 0
BITMAP
ENDCHAR
STARTCHAR 00C1
ENCODING 193
SWIDTH 773 0
DWIDTH 29 0
BBX 0 0 0 0
BITMAP
ENDCHAR
STARTCHAR 00C2
ENCODING 194
SWIDTH 773 0
DWIDTH 29 0
BBX 0 0 0 0
BITMAP
ENDCHAR
STARTCHAR 00C3
ENCODING 195
SWIDTH 773 0
DWIDTH 29 0
BBX 0 0 0 0
BITMAP
ENDCHAR
STARTCHAR 00C4
ENCODING 196
SWIDTH 773 0
DWIDTH 29 0
BBX 0 0 0 0
BITMAP
ENDCHAR
STARTCHAR 00C5
ENCODING 197
SWIDTH 773 0
DWIDTH 29 0
BBX 0 0 0 0
BITMAP
ENDCHAR
STARTCHAR 00C6
ENCODING 198
SWIDTH 1040 0
DWIDTH 39 0
BBX 0 0 0 0
BITMAP
ENDCHAR
STARTCHAR 00C7
ENCODING 199
SWIDTH 693 0
DWIDTH 26 0
BBX 0 0 0 0
BITMAP
ENDCHAR
STARTCHAR 00C8
ENCODING 200
SWIDTH 560 0
DWIDTH 21 0
BBX 0 0 0 0
BITMAP
ENDCHAR
STARTCHAR 00C9
ENCODING 201
SWIDTH 560 0
DWIDTH 21 0
BBX 0 0 0 0
BITMAP
ENDCHAR
STARTCHAR 00CA
ENCODING 202
SWIDTH 560 0
DWIDTH 21 0
BBX 0 0 0 0
BITMAP
ENDCHAR
STARTCHAR 00CB
ENCODING 203
SWIDTH 560 0
DWIDTH 21 0
BBX 0 0 0 0
BITMAP
ENDCHAR
STARTCHAR 00CC
ENCODING 204
SWIDTH 320 0
DWIDTH 12 0
BBX 0 0 0 0
BITMAP
ENDCHAR
STARTCHAR 00CD
ENCODING 205
SWIDTH 320 0
DWIDTH 12 0
BBX 0 0 0 0
BITMAP
ENDCHAR
STARTCHAR 00CE
ENCODING 206
SWIDTH 320 0
DWIDTH 12 0
BBX 0 0 0 0
BITMAP
ENDCHAR
STARTCHAR 00CF
ENCODING 207
SWIDTH 320 0
DWIDTH 12 0
BBX 0 0 0 0
BITMAP
ENDCHAR
STARTCHAR 00D0
ENCODING 208
SWIDTH 746 0
DWIDTH 28 0
BBX 0 0 0 0
BITMAP
ENDCHAR
STARTCHAR 00D1
ENCODING 209
SWIDTH 773 0
DWIDTH 29 0
BBX 0 0 0 0
BITMAP
ENDCHAR
STARTCHAR 00D2
ENCODING 210
SWIDTH 800 0
DWIDTH 30 0
BBX 0 0 0 0
BITMAP
ENDCHAR
STARTCHAR 00D3
ENCODING 211
SWIDTH 800 0
DWIDTH 30 0
BBX 0 0 0 0
BITMAP
ENDCHAR
STARTCHAR 00D4
ENCODING 212
SWIDTH 800 0
DWIDTH 30 0
BBX 0 0 0 0
BITMAP
ENDCHAR
STARTCHAR 00D5
ENCODING 213
SWIDTH 800 0
DWIDTH 30 0
BBX 0 0 0 0
BITMAP
ENDCHAR
STARTCHAR 00D6
ENCODING 214
SWIDTH 800 0
DWIDTH 30 0
BBX 0 0 0 0
BITMAP
ENDCHAR
STARTCHAR 00D7
ENCODING 215
SWIDTH 506 0
DWIDTH 19 0
BBX 0 0 0 0
BITMAP
ENDCHAR
STARTCHAR 00D8
ENCODING 216
SWIDTH 800 0
DWIDTH 30 0
BBX 0 0 0 0
BITMAP
ENDCHAR
STARTCHAR 00D9
ENCODING 217
SWIDTH 746 0
DWIDTH 28 0
BBX 0 0 0 0
BITMAP
ENDCHAR
STARTCHAR 00DA
ENCODING 218
SWIDTH 746 0
DWIDTH 28 0
BBX 0 0 0 0
BITMAP
ENDCHAR
STARTCHAR 00DB
ENCODING 219
SWIDTH 746 0
DWIDTH 28 0
BBX 0 0 0 0
BITMAP
ENDCHAR
STARTCHAR 00DC
ENCODING 220
SWIDTH 746 0
DWIDTH 28 0
BBX 0 0 0 0
BITMAP
ENDCHAR
STARTCHAR 00DD
ENCODING 221
SWIDTH 613 0
DWIDTH 23 0
BBX 0 0 0 0
BITMAP
ENDCHAR
STARTCHAR 00DE
ENCODING 222
SWIDTH 560 0
DWIDTH 21 0
BBX 0 0 0 0
BITMAP
ENDCHAR
STARTCHAR 00DF
ENCODING 223
SWIDTH 613 0
DWIDTH 23 0
BBX 0 0 0 0
BITMAP
ENDCHAR
STARTCHAR 00E0
ENCODING 224
SWIDTH 453 0
DWIDTH 17 0
BBX 0 0 0 0
BITMAP
ENDCHAR
STARTCHAR 00E1
ENCODING 225
SWIDTH 453 0
DWIDTH 17 0
BBX 0 0 0 0
BITMAP
ENDCHAR
STARTCHAR 00E2
ENCODING 226
SWIDTH 453 0
DWIDTH 17 0
BBX 0 0 0 0
BITMAP
ENDCHAR
STARTCHAR 00E3
ENCODING 227
SWIDTH 453 0
DWIDTH 17 0
BBX 0 0 0 0
BITMAP
ENDCHAR
STARTCHAR 00E4
ENCODING 228
SWIDTH 453 0
DWIDTH 17 0
BBX 0 0 0 0
BITMAP
ENDCHAR
STARTCHAR 00E5
ENCODING 229
SWIDTH 453 0
DWIDTH 17 0
BBX 0 0 0 0
BITMAP
ENDCHAR
STARTCHAR 00E6
ENCODING 230
SWIDTH 720 0
DWIDTH 27 0
BBX 0 0 0 0
BITMAP
ENDCHAR
STARTCHAR 00E7
ENCODING 231
SWIDTH 453 0
DWIDTH 17 0
BBX 0 0 0 0
BITMAP
ENDCHAR
STARTCHAR 00E8
ENCODING 232
SWIDTH 453 0
DWIDTH 17 0
BBX 0 0 0 0
BITMAP
ENDCHAR
STARTCHAR 00E9
ENCODING 233
SWIDTH 453 0
DWIDTH 17 0
BBX 0 0 0 0
BITMAP
ENDCHAR
STARTCHAR 00EA
ENCODING 234
SWIDTH 453 0
DWIDTH 17 0
BBX 0 0 0 0
BITMAP
ENDCHAR
STARTCHAR 00EB
ENCODING 235
SWIDTH 453 0
DWIDTH 17 0
BBX 0 0 0 0
BITMAP
ENDCHAR
STARTCHAR 00EC
ENCODING 236
SWIDTH 266 0
DWIDTH 10 0
BBX 0 0 0 0
BITMAP
ENDCHAR
STARTCHAR 00ED
ENCODING 237
SWIDTH 266 0
DWIDTH 10 0
BBX 0 0 0 0
BITMAP
ENDCHAR
STARTCHAR 00EE
ENCODING 238
SWIDTH 266 0
DWIDTH 10 0
BBX 0 0 0 0
BITMAP
ENDCHAR
STARTCHAR 00EF
ENCODING 239
SWIDTH 266 0
DWIDTH 10 0
BBX 0 0 0 0
BITMAP
ENDCHAR
STARTCHAR 00F0
ENCODING 240
SWIDTH 560 0
DWIDTH 21 0
BBX 0 0 0 0
BITMAP
ENDCHAR
STARTCHAR 00F1
ENCODING 241
SWIDTH 560 0
DWIDTH 21 0
BBX 0 0 0 0
BITMAP
ENDCHAR
STARTCHAR 00F2
ENCODING 242
SWIDTH 506 0
DWIDTH 19 0
BBX 0 0 0 0
BITMAP
ENDCHAR
STARTCHAR 00F3
ENCODING 243
SWIDTH 506 0
DWIDTH 19 0
BBX 0 0 0 0
BITMAP
ENDCHAR
STARTCHAR 00F4
ENCODING 244
SWIDTH 506 0
DWIDTH 19 0
BBX 0 0 0 0
BITMAP
ENDCHAR
STARTCHAR 00F5
ENCODING 245
SWIDTH 506 0
DWIDTH 19 0
BBX 0 0 0 0
BITMAP
ENDCHAR
STARTCHAR 00F6
ENCODING 246
SWIDTH 506 0
DWIDTH 19 0
BBX 0 0 0 0
BITMAP
ENDCHAR
STARTCHAR 00F7
ENCODING 247
SWIDTH 506 0
DWIDTH 19 0
BBX 0 0 0 0
BITMAP
ENDCHAR
STARTCHAR 00F8
ENCODING 248
SWIDTH 506 0
DWIDTH 19 0
BBX 0 0 0 0
BITMAP
ENDCHAR
STARTCHAR 00F9
ENCODING 249
SWIDTH 533 0
DWIDTH 20 0
BBX 0 0 0 0
BITMAP
ENDCHAR
STARTCHAR 00FA
ENCODING 250
SWIDTH 533 0
DWIDTH 20 0
BBX 0 0 0 0
BITMAP
ENDCHAR
STARTCHAR 00FB
ENCODING 251
SWIDTH 533 0
DWIDTH 20 0
BBX 0 0 0 0
BITMAP
ENDCHAR
STARTCHAR 00FC
ENCODING 252
SWIDTH 533 0
DWIDTH 20 0
BBX 0 0 0 0
BITMAP
ENDCHAR
STARTCHAR 00FD
ENCODING 253
SWIDTH 426 0
DWIDTH 16 0
BBX 0 0 0 0
BITMAP
ENDCHAR
STARTCHAR 00FE
ENCODING 254
SWIDTH 506 0
DWIDTH 19 0
BBX 0 0 0 0
BITMAP
ENDCHAR
STARTCHAR 00FF
ENCODING 255
SWIDTH 426 0
DWIDTH 16 0
BBX 0 0 0 0
BITMAP
ENDCHAR
STARTCHAR 0131
ENCODING 305
SWIDTH 266 0
DWIDTH 10 0
BBX 0 0 0 0
BITMAP
ENDCHAR
STARTCHAR 02C6
ENCODING 710
SWIDTH 506 0
DWIDTH 19 0
BBX 0 0 0 0
BITMAP
ENDCHAR
STARTCHAR 02C7
ENCODING 711
SWIDTH 506 0
DWIDTH 19 0
BBX 0 0 0 0
BITMAP
ENDCHAR
STARTCHAR 02C9
ENCODING 713
SWIDTH 506 0
DWIDTH 19 0
BBX 0 0 0 0
BITMAP
ENDCHAR
STARTCHAR 02D8
ENCODING 728
SWIDTH 506 0
DWIDTH 19 0
BBX 0 0 0 0
BITMAP
ENDCHAR
STARTCHAR 02D9
ENCODING 729
SWIDTH 506 0
DWIDTH 19 0
BBX 0 0 0 0
BITMAP
ENDCHAR
STARTCHAR 02DA
ENCODING 730
SWIDTH 506 0
DWIDTH 19 0
BBX 0 0 0 0
BITMAP
ENDCHAR
STARTCHAR 02DB
ENCODING 731
SWIDTH 506 0
DWIDTH 19 0
BBX 0 0 0 0
BITMAP
ENDCHAR
STARTCHAR 02DC
ENCODING 732
SWIDTH 506 0
DWIDTH 19 0
BBX 0 0 0 0
BITMAP
ENDCHAR
STARTCHAR 02DD
ENCODING 733
SWIDTH 506 0
DWIDTH 19 0
BBX 0 0 0 0
BITMAP
ENDCHAR
STARTCHAR 037E
ENCODING 894
SWIDTH 986 0
DWIDTH 37 0
BBX 37 36 0 -6
BITMAP
0000700000
0000700000
0000700000
0000700000
0000700000
0000700000
0000700000
0000700000
0000700000
0000700000
0000700000
0000700000
0000700000
0000700000
0000700000
0000700000
0000700000
FFFFFFFFF8
FFFFFFFFF8
0000700000
0000700000
0000700000
0000700000
0000700000
0000700000
0000700000
0000700000
0000700000
0000700000
0000700000
0000700000
0000700000
0000700000
0000700000
0000700000
0000700000
ENDCHAR
STARTCHAR 2013
ENCODING 8211
SWIDTH 560 0
DWIDTH 21 0
BBX 0 0 0 0
BITMAP
ENDCHAR
STARTCHAR 2014
ENCODING 8212
SWIDTH 1013 0
DWIDTH 38 0
BBX 0 0 0 0
BITMAP
ENDCHAR
STARTCHAR 2018
ENCODING 8216
SWIDTH 266 0
DWIDTH 10 0
BBX 0 0 0 0
BITMAP
ENDCHAR
STARTCHAR 2019
ENCODING 8217
SWIDTH 266 0
DWIDTH 10 0
BBX 0 0 0 0
BITMAP
ENDCHAR
STARTCHAR 201A
ENCODING 8218
SWIDTH 266 0
DWIDTH 10 0
BBX 0 0 0 0
BITMAP
ENDCHAR
STARTCHAR 201C
ENCODING 8220
SWIDTH 453 0
DWIDTH 17 0
BBX 0 0 0 0
BITMAP
ENDCHAR
STARTCHAR 201D
ENCODING 8221
SWIDTH 453 0
DWIDTH 17 0
BBX 0 0 0 0
BITMAP
ENDCHAR
STARTCHAR 201E
ENCODING 8222
SWIDTH 453 0
DWIDTH 17 0
BBX 0 0 0 0
BITMAP
ENDCHAR
STARTCHAR 2020
ENCODING 8224
SWIDTH 506 0
DWIDTH 19 0
BBX 0 0 0 0
BITMAP
ENDCHAR
STARTCHAR 2021
ENCODING 8225
SWIDTH 506 0
DWIDTH 19 0
BBX 0 0 0 0
BITMAP
ENDCHAR
STARTCHAR 2022
ENCODING 8226
SWIDTH 506 0
DWIDTH 19 0
BBX 0 0 0 0
BITMAP
ENDCHAR
STARTCHAR 2026
ENCODING 8230
SWIDTH 1013 0
DWIDTH 38 0
BBX 0 0 0 0
BITMAP
ENDCHAR
STARTCHAR 2039
ENCODING 8249
SWIDTH 320 0
DWIDTH 12 0
BBX 0 0 0 0
BITMAP
ENDCHAR
STARTCHAR 203A
ENCODING 8250
SWIDTH 320 0
DWIDTH 12 0
BBX 0 0 0 0
BITMAP
ENDCHAR
STARTCHAR 2044
ENCODING 8260
SWIDTH 160 0
DWIDTH 6 0
BBX 0 0 0 0
BITMAP
ENDCHAR
STARTCHAR 20A3
ENCODING 8355
SWIDTH 506 0
DWIDTH 19 0
BBX 0 0 0 0
BITMAP
ENDCHAR
STARTCHAR 20A4
ENCODING 8356
SWIDTH 506 0
DWIDTH 19 0
BBX 0 0 0 0
BITMAP
ENDCHAR
STARTCHAR 20A7
ENCODING 8359
SWIDTH 1013 0
DWIDTH 38 0
BBX 0 0 0 0
BITMAP
ENDCHAR
STARTCHAR 20AC
ENCODING 8364
SWIDTH 506 0
DWIDTH 19 0
BBX 0 0 0 0
BITMAP
ENDCHAR
STARTCHAR 2116
ENCODING 8470
SWIDTH 1120 0
DWIDTH 42 0
BBX 0 0 0 0
BITMAP
ENDCHAR
STARTCHAR 2122
ENCODING 8482
SWIDTH 746 0
DWIDTH 28 0
BBX 0 0 0 0
BITMAP
ENDCHAR
STARTCHAR 2202
ENCODING 8706
SWIDTH 506 0
DWIDTH 19 0
BBX 0 0 0 0
BITMAP
ENDCHAR
STARTCHAR 2206
ENCODING 8710
SWIDTH 533 0
DWIDTH 20 0
BBX 0 0 0 0
BITMAP
ENDCHAR
STARTCHAR 220F
ENCODING 8719
SWIDTH 746 0
DWIDTH 28 0
BBX 0 0 0 0
BITMAP
ENDCHAR
STARTCHAR 2211
ENCODING 8721
SWIDTH 586 0
DWIDTH 22 0
BBX 0 0 0 0
BITMAP
ENDCHAR
STARTCHAR 2212
ENCODING 8722
SWIDTH 506 0
DWIDTH 19 0
BBX 0 0 0 0
BITMAP
ENDCHAR
STARTCHAR 2215
ENCODING 8725
SWIDTH 160 0
DWIDTH 6 0
BBX 0 0 0 0
BITMAP
ENDCHAR
STARTCHAR 2219
ENCODING 8729
SWIDTH 240 0
DWIDTH 9 0
BBX 0 0 0 0
BITMAP
ENDCHAR
STARTCHAR 221A
ENCODING 8730
SWIDTH 506 0
DWIDTH 19 0
BBX 0 0 0 0
BITMAP
ENDCHAR
STARTCHAR 221E
ENCODING 8734
SWIDTH 506 0
DWIDTH 19 0
BBX 0 0 0 0
BITMAP
ENDCHAR
STARTCHAR 222B
ENCODING 8747
SWIDTH 320 0
DWIDTH 12 0
BBX 0 0 0 0
BITMAP
ENDCHAR
STARTCHAR 2248
ENCODING 8776
SWIDTH 506 0
DWIDTH 19 0
BBX 0 0 0 0
BITMAP
ENDCHAR
STARTCHAR 2264
ENCODING 8804
SWIDTH 506 0
DWIDTH 19 0
BBX 0 0 0 0
BITMAP
ENDCHAR
STARTCHAR 2265
ENCODING 8805
SWIDTH 506 0
DWIDTH 19 0
BBX 0 0 0 0
BITMAP
ENDCHAR
STARTCHAR F001
ENCODING 61441
SWIDTH 533 0
DWIDTH 20 0
BBX 0 0 0 0
BITMAP
ENDCHAR
STARTCHAR F002
ENCODING 61442
SWIDTH 533 0
DWIDTH 20 0
BBX 0 0 0 0
BITMAP
ENDCHAR
STARTCHAR FB01
ENCODING 64257
SWIDTH 533 0
DWIDTH 20 0
BBX 0 0 0 0
BITMAP
ENDCHAR
STARTCHAR FB02
ENCODING 64258
SWIDTH 533 0
DWIDTH 20 0
BBX 0 0 0 0
BITMAP
ENDCHAR
ENDFONT
